<svg width="881" height="808" viewBox="0 0 881 808" fill="none" xmlns="http://www.w3.org/2000/svg">
<path d="M685.858 143.016C746.647 182.608 776.161 263.812 792.459 347.44C808.758 430.664 811.841 516.312 771.756 578.932C731.67 641.148 648.856 680.336 573.09 680.74C497.324 681.144 429.047 643.168 344.911 624.18C260.776 605.192 160.782 605.192 108.803 561.156C56.8245 517.12 52.86 429.048 81.933 357.944C111.446 287.244 173.557 233.916 238.751 194.728C303.945 155.944 372.222 131.704 452.393 118.776C533.005 105.444 625.069 103.424 685.858 143.016Z" fill="url(#paint0_linear_4_9)"/>
<defs>
<linearGradient id="paint0_linear_4_9" x1="433.822" y1="110.136" x2="433.822" y2="680.743" gradientUnits="userSpaceOnUse">
<stop stop-color="#BD5EF8"/>
<stop offset="0.5" stop-color="#600ADE" stop-opacity="0.66"/>
<stop offset="1" stop-color="#5B38E4"/>
</linearGradient>
</defs>
</svg>
